<mxfile host="app.diagrams.net" modified="2021-01-06T02:05:22.460Z" agent="5.0 (Windows)" etag="UwO87ZkUj6iE3SgcHKTn" version="14.1.8" type="github">
  <diagram id="zxAkRiN1rpWf9YBseCYk" name="Page-1">
    <mxGraphModel dx="872" dy="494" grid="1" gridSize="10" guides="1" tooltips="1" connect="1" arrows="1" fold="1" page="1" pageScale="1" pageWidth="827" pageHeight="1169" math="0" shadow="0">
      <root>
        <mxCell id="0" />
        <mxCell id="1" parent="0" />
        <mxCell id="JmKAYM3D-OT-KKKuv77Q-1" style="edgeStyle=orthogonalEdgeStyle;rounded=0;orthogonalLoop=1;jettySize=auto;html=1;exitX=0.5;exitY=0;exitDx=0;exitDy=0;entryX=0.5;entryY=0;entryDx=0;entryDy=0;dashed=1;" edge="1" parent="1" source="JmKAYM3D-OT-KKKuv77Q-3" target="JmKAYM3D-OT-KKKuv77Q-22">
          <mxGeometry relative="1" as="geometry" />
        </mxCell>
        <mxCell id="JmKAYM3D-OT-KKKuv77Q-2" value="拷贝" style="edgeLabel;html=1;align=center;verticalAlign=middle;resizable=0;points=[];" vertex="1" connectable="0" parent="JmKAYM3D-OT-KKKuv77Q-1">
          <mxGeometry x="-0.0701" y="2" relative="1" as="geometry">
            <mxPoint as="offset" />
          </mxGeometry>
        </mxCell>
        <mxCell id="JmKAYM3D-OT-KKKuv77Q-3" value="" style="rounded=0;whiteSpace=wrap;html=1;fillColor=#dae8fc;strokeColor=#6c8ebf;" vertex="1" parent="1">
          <mxGeometry x="140" y="90" width="160" height="200" as="geometry" />
        </mxCell>
        <mxCell id="JmKAYM3D-OT-KKKuv77Q-4" value="user" style="text;html=1;align=center;verticalAlign=middle;whiteSpace=wrap;rounded=0;fillColor=#f8cecc;strokeColor=#b85450;" vertex="1" parent="1">
          <mxGeometry x="200" y="100" width="40" height="20" as="geometry" />
        </mxCell>
        <mxCell id="JmKAYM3D-OT-KKKuv77Q-5" style="edgeStyle=orthogonalEdgeStyle;rounded=0;orthogonalLoop=1;jettySize=auto;html=1;exitX=1;exitY=0.5;exitDx=0;exitDy=0;" edge="1" parent="1" source="JmKAYM3D-OT-KKKuv77Q-6" target="JmKAYM3D-OT-KKKuv77Q-24">
          <mxGeometry relative="1" as="geometry">
            <Array as="points">
              <mxPoint x="380" y="160" />
              <mxPoint x="380" y="160" />
            </Array>
          </mxGeometry>
        </mxCell>
        <mxCell id="JmKAYM3D-OT-KKKuv77Q-6" value="age：18" style="rounded=0;whiteSpace=wrap;html=1;fillColor=#fff2cc;strokeColor=#d6b656;" vertex="1" parent="1">
          <mxGeometry x="155" y="140" width="130" height="40" as="geometry" />
        </mxCell>
        <mxCell id="JmKAYM3D-OT-KKKuv77Q-7" style="edgeStyle=orthogonalEdgeStyle;rounded=0;orthogonalLoop=1;jettySize=auto;html=1;exitX=1;exitY=0.5;exitDx=0;exitDy=0;entryX=0;entryY=0.5;entryDx=0;entryDy=0;dashed=1;" edge="1" parent="1" source="JmKAYM3D-OT-KKKuv77Q-8" target="JmKAYM3D-OT-KKKuv77Q-25">
          <mxGeometry relative="1" as="geometry" />
        </mxCell>
        <mxCell id="JmKAYM3D-OT-KKKuv77Q-8" value="name：Java旅途" style="rounded=0;whiteSpace=wrap;html=1;fillColor=#fff2cc;strokeColor=#d6b656;" vertex="1" parent="1">
          <mxGeometry x="155" y="190" width="130" height="40" as="geometry" />
        </mxCell>
        <mxCell id="JmKAYM3D-OT-KKKuv77Q-9" style="edgeStyle=orthogonalEdgeStyle;rounded=0;orthogonalLoop=1;jettySize=auto;html=1;exitX=0.5;exitY=1;exitDx=0;exitDy=0;entryX=0.5;entryY=0;entryDx=0;entryDy=0;" edge="1" parent="1" source="JmKAYM3D-OT-KKKuv77Q-12" target="JmKAYM3D-OT-KKKuv77Q-14">
          <mxGeometry relative="1" as="geometry">
            <mxPoint x="220" y="330" as="targetPoint" />
          </mxGeometry>
        </mxCell>
        <mxCell id="JmKAYM3D-OT-KKKuv77Q-10" style="edgeStyle=orthogonalEdgeStyle;rounded=0;orthogonalLoop=1;jettySize=auto;html=1;exitX=1;exitY=0.5;exitDx=0;exitDy=0;entryX=0;entryY=0.5;entryDx=0;entryDy=0;" edge="1" parent="1" source="JmKAYM3D-OT-KKKuv77Q-12" target="JmKAYM3D-OT-KKKuv77Q-27">
          <mxGeometry relative="1" as="geometry" />
        </mxCell>
        <mxCell id="JmKAYM3D-OT-KKKuv77Q-11" value="深拷贝" style="edgeLabel;html=1;align=center;verticalAlign=middle;resizable=0;points=[];" vertex="1" connectable="0" parent="JmKAYM3D-OT-KKKuv77Q-10">
          <mxGeometry x="-0.2083" y="-1" relative="1" as="geometry">
            <mxPoint as="offset" />
          </mxGeometry>
        </mxCell>
        <mxCell id="JmKAYM3D-OT-KKKuv77Q-12" value="dept" style="rounded=0;whiteSpace=wrap;html=1;fillColor=#fff2cc;strokeColor=#d6b656;" vertex="1" parent="1">
          <mxGeometry x="155" y="240" width="130" height="40" as="geometry" />
        </mxCell>
        <mxCell id="JmKAYM3D-OT-KKKuv77Q-13" value="拷贝" style="edgeStyle=orthogonalEdgeStyle;rounded=0;orthogonalLoop=1;jettySize=auto;html=1;exitX=0.5;exitY=1;exitDx=0;exitDy=0;entryX=0.5;entryY=1;entryDx=0;entryDy=0;dashed=1;" edge="1" parent="1" source="JmKAYM3D-OT-KKKuv77Q-14" target="JmKAYM3D-OT-KKKuv77Q-30">
          <mxGeometry relative="1" as="geometry" />
        </mxCell>
        <mxCell id="JmKAYM3D-OT-KKKuv77Q-14" value="" style="rounded=0;whiteSpace=wrap;html=1;fillColor=#dae8fc;strokeColor=#6c8ebf;" vertex="1" parent="1">
          <mxGeometry x="152.5" y="340" width="135" height="160" as="geometry" />
        </mxCell>
        <mxCell id="JmKAYM3D-OT-KKKuv77Q-15" value="dept" style="text;html=1;align=center;verticalAlign=middle;whiteSpace=wrap;rounded=0;fillColor=#f8cecc;strokeColor=#b85450;" vertex="1" parent="1">
          <mxGeometry x="200" y="350" width="40" height="20" as="geometry" />
        </mxCell>
        <mxCell id="JmKAYM3D-OT-KKKuv77Q-16" style="edgeStyle=orthogonalEdgeStyle;rounded=0;orthogonalLoop=1;jettySize=auto;html=1;exitX=1;exitY=0.5;exitDx=0;exitDy=0;entryX=0;entryY=0.5;entryDx=0;entryDy=0;dashed=1;" edge="1" parent="1" source="JmKAYM3D-OT-KKKuv77Q-18" target="JmKAYM3D-OT-KKKuv77Q-32">
          <mxGeometry relative="1" as="geometry" />
        </mxCell>
        <mxCell id="JmKAYM3D-OT-KKKuv77Q-17" value="复制值" style="edgeLabel;html=1;align=center;verticalAlign=middle;resizable=0;points=[];" vertex="1" connectable="0" parent="JmKAYM3D-OT-KKKuv77Q-16">
          <mxGeometry x="-0.1264" y="-2" relative="1" as="geometry">
            <mxPoint as="offset" />
          </mxGeometry>
        </mxCell>
        <mxCell id="JmKAYM3D-OT-KKKuv77Q-18" value="deptNo：18" style="rounded=0;whiteSpace=wrap;html=1;fillColor=#fff2cc;strokeColor=#d6b656;" vertex="1" parent="1">
          <mxGeometry x="170" y="390" width="100" height="30" as="geometry" />
        </mxCell>
        <mxCell id="JmKAYM3D-OT-KKKuv77Q-19" style="edgeStyle=orthogonalEdgeStyle;rounded=0;orthogonalLoop=1;jettySize=auto;html=1;exitX=1;exitY=0.5;exitDx=0;exitDy=0;dashed=1;" edge="1" parent="1" source="JmKAYM3D-OT-KKKuv77Q-21" target="JmKAYM3D-OT-KKKuv77Q-33">
          <mxGeometry relative="1" as="geometry" />
        </mxCell>
        <mxCell id="JmKAYM3D-OT-KKKuv77Q-20" value="复制值" style="edgeLabel;html=1;align=center;verticalAlign=middle;resizable=0;points=[];" vertex="1" connectable="0" parent="JmKAYM3D-OT-KKKuv77Q-19">
          <mxGeometry x="-0.1034" y="-1" relative="1" as="geometry">
            <mxPoint as="offset" />
          </mxGeometry>
        </mxCell>
        <mxCell id="JmKAYM3D-OT-KKKuv77Q-21" value="name：市场部" style="rounded=0;whiteSpace=wrap;html=1;fillColor=#fff2cc;strokeColor=#d6b656;" vertex="1" parent="1">
          <mxGeometry x="170" y="440" width="100" height="30" as="geometry" />
        </mxCell>
        <mxCell id="JmKAYM3D-OT-KKKuv77Q-22" value="" style="rounded=0;whiteSpace=wrap;html=1;fillColor=#dae8fc;strokeColor=#6c8ebf;" vertex="1" parent="1">
          <mxGeometry x="414" y="90" width="160" height="200" as="geometry" />
        </mxCell>
        <mxCell id="JmKAYM3D-OT-KKKuv77Q-23" value="user1" style="text;html=1;align=center;verticalAlign=middle;whiteSpace=wrap;rounded=0;fillColor=#f8cecc;strokeColor=#b85450;" vertex="1" parent="1">
          <mxGeometry x="474" y="100" width="40" height="20" as="geometry" />
        </mxCell>
        <mxCell id="JmKAYM3D-OT-KKKuv77Q-24" value="age：18" style="rounded=0;whiteSpace=wrap;html=1;fillColor=#fff2cc;strokeColor=#d6b656;" vertex="1" parent="1">
          <mxGeometry x="429" y="140" width="130" height="40" as="geometry" />
        </mxCell>
        <mxCell id="JmKAYM3D-OT-KKKuv77Q-25" value="name：Java旅途" style="rounded=0;whiteSpace=wrap;html=1;fillColor=#fff2cc;strokeColor=#d6b656;" vertex="1" parent="1">
          <mxGeometry x="429" y="190" width="130" height="40" as="geometry" />
        </mxCell>
        <mxCell id="JmKAYM3D-OT-KKKuv77Q-26" style="edgeStyle=orthogonalEdgeStyle;rounded=0;orthogonalLoop=1;jettySize=auto;html=1;exitX=0.5;exitY=1;exitDx=0;exitDy=0;entryX=0.5;entryY=0;entryDx=0;entryDy=0;" edge="1" parent="1" source="JmKAYM3D-OT-KKKuv77Q-27" target="JmKAYM3D-OT-KKKuv77Q-30">
          <mxGeometry relative="1" as="geometry" />
        </mxCell>
        <mxCell id="JmKAYM3D-OT-KKKuv77Q-27" value="dept" style="rounded=0;whiteSpace=wrap;html=1;fillColor=#fff2cc;strokeColor=#d6b656;" vertex="1" parent="1">
          <mxGeometry x="429" y="240" width="130" height="40" as="geometry" />
        </mxCell>
        <mxCell id="JmKAYM3D-OT-KKKuv77Q-28" value="复制值" style="text;html=1;align=center;verticalAlign=middle;resizable=0;points=[];autosize=1;" vertex="1" parent="1">
          <mxGeometry x="315" y="140" width="50" height="20" as="geometry" />
        </mxCell>
        <mxCell id="JmKAYM3D-OT-KKKuv77Q-29" value="复制值" style="text;html=1;align=center;verticalAlign=middle;resizable=0;points=[];autosize=1;" vertex="1" parent="1">
          <mxGeometry x="315" y="190" width="50" height="20" as="geometry" />
        </mxCell>
        <mxCell id="JmKAYM3D-OT-KKKuv77Q-30" value="" style="rounded=0;whiteSpace=wrap;html=1;fillColor=#dae8fc;strokeColor=#6c8ebf;" vertex="1" parent="1">
          <mxGeometry x="426.5" y="340" width="135" height="160" as="geometry" />
        </mxCell>
        <mxCell id="JmKAYM3D-OT-KKKuv77Q-31" value="dept1" style="text;html=1;align=center;verticalAlign=middle;whiteSpace=wrap;rounded=0;fillColor=#f8cecc;strokeColor=#b85450;" vertex="1" parent="1">
          <mxGeometry x="474" y="350" width="40" height="20" as="geometry" />
        </mxCell>
        <mxCell id="JmKAYM3D-OT-KKKuv77Q-32" value="deptNo：18" style="rounded=0;whiteSpace=wrap;html=1;fillColor=#fff2cc;strokeColor=#d6b656;" vertex="1" parent="1">
          <mxGeometry x="444" y="390" width="100" height="30" as="geometry" />
        </mxCell>
        <mxCell id="JmKAYM3D-OT-KKKuv77Q-33" value="name：市场部" style="rounded=0;whiteSpace=wrap;html=1;fillColor=#fff2cc;strokeColor=#d6b656;" vertex="1" parent="1">
          <mxGeometry x="444" y="440" width="100" height="30" as="geometry" />
        </mxCell>
      </root>
    </mxGraphModel>
  </diagram>
</mxfile>
